<?xml version="1.0" standalone="no"?>
<!DOCTYPE svg PUBLIC "-//W3C//DTD SVG 20010904//EN"
 "http://www.w3.org/TR/2001/REC-SVG-20010904/DTD/svg10.dtd">
<svg version="1.0" xmlns="http://www.w3.org/2000/svg"
 width="3072.000000pt" height="2048.000000pt" viewBox="0 0 3072.000000 2048.000000"
 preserveAspectRatio="xMidYMid meet">

<g transform="translate(0.000000,2048.000000) scale(0.100000,-0.100000)"
fill="#000000" stroke="none">
<path d="M20154 16825 c-153 -37 -315 -153 -406 -290 -49 -75 -98 -182 -98
-216 0 -11 -4 -28 -9 -37 -17 -32 -41 -202 -42 -300 -2 -158 2 -150 -119 -200
-126 -51 -410 -190 -499 -244 -34 -21 -65 -38 -67 -38 -5 0 -267 -175 -292
-195 -9 -7 -57 -44 -107 -81 -133 -100 -164 -124 -230 -179 -66 -55 -189 -162
-275 -240 -95 -86 -611 -606 -700 -704 -93 -103 -95 -105 -214 -235 -44 -49
-88 -96 -97 -105 -8 -9 -58 -65 -109 -126 -52 -60 -100 -114 -106 -120 -6 -5
-53 -59 -105 -120 -51 -60 -96 -112 -99 -115 -3 -3 -30 -34 -60 -70 -30 -36
-59 -69 -65 -75 -6 -5 -27 -30 -47 -55 -20 -25 -50 -61 -68 -80 -17 -19 -48
-55 -68 -79 -20 -24 -44 -50 -52 -59 -8 -8 -25 -28 -37 -45 -12 -16 -39 -47
-60 -70 -21 -22 -48 -54 -60 -70 -12 -16 -39 -47 -60 -70 -21 -23 -54 -62 -74
-87 -21 -25 -50 -59 -65 -76 -16 -17 -47 -52 -69 -79 -60 -72 -115 -136 -128
-150 -7 -6 -30 -33 -52 -59 -22 -26 -53 -62 -69 -79 -15 -18 -60 -68 -99 -112
-39 -44 -76 -85 -81 -91 -6 -6 -49 -53 -96 -105 -181 -200 -707 -714 -930
-910 -46 -41 -96 -85 -111 -99 -15 -14 -47 -42 -71 -62 -23 -21 -57 -50 -74
-65 -35 -31 -39 -34 -179 -153 -55 -47 -102 -87 -105 -90 -4 -5 -174 -149
-220 -187 -102 -84 -349 -277 -371 -290 -75 -44 -27 -51 371 -53 151 -1 277
-3 281 -6 4 -2 53 -9 110 -14 168 -17 240 -29 349 -59 141 -39 170 -48 176
-54 4 -4 16 -7 26 -7 10 0 26 -4 36 -9 9 -5 55 -24 102 -41 47 -18 101 -39
120 -47 57 -25 104 -45 125 -53 169 -67 450 -222 554 -306 9 -7 50 -39 91 -72
90 -72 242 -220 289 -282 19 -25 42 -53 50 -62 25 -27 34 -39 86 -118 54 -81
70 -107 81 -130 4 -8 11 -17 14 -20 12 -9 110 -215 110 -232 0 -9 5 -18 10
-20 6 -2 12 -15 14 -30 1 -15 7 -33 13 -40 6 -7 14 -31 18 -53 4 -22 10 -44
15 -50 10 -13 45 -180 70 -340 25 -158 -3 -551 -46 -653 -8 -18 -14 -43 -14
-56 0 -22 -21 -102 -40 -151 -4 -11 -17 -47 -30 -80 -32 -84 -60 -150 -96
-220 -47 -93 -105 -199 -115 -209 -29 -31 11 -35 53 -5 16 12 57 35 89 50 86
42 308 192 489 331 19 15 76 57 125 94 50 37 92 70 95 73 3 3 21 18 40 33 19
15 47 37 62 50 14 13 39 32 55 43 15 11 48 38 73 61 25 22 55 47 68 56 12 8
39 31 60 49 20 19 46 41 58 49 11 8 50 41 85 72 75 66 96 84 140 118 18 14 37
30 43 35 6 6 43 37 81 69 39 32 106 92 151 132 92 84 114 103 179 159 45 38
117 100 203 175 62 54 202 181 242 220 20 19 73 69 119 110 46 41 104 94 129
118 24 23 53 42 64 42 27 0 166 -94 366 -248 20 -16 116 -88 212 -160 96 -72
209 -157 250 -188 41 -32 116 -88 165 -126 50 -37 95 -71 100 -75 169 -136
254 -201 399 -312 39 -29 73 -57 76 -60 3 -4 32 -27 64 -52 32 -24 80 -60 105
-79 26 -19 56 -44 67 -55 23 -23 199 -153 389 -288 72 -51 175 -125 230 -166
55 -41 116 -86 135 -100 19 -14 46 -32 59 -39 13 -6 58 -38 100 -70 l76 -57
-35 -3 c-19 -2 -52 1 -72 7 -21 6 -55 15 -75 20 -147 37 -332 117 -475 208
-21 12 -39 23 -42 23 -2 0 -33 17 -67 38 -35 21 -100 58 -144 82 -105 57 -335
198 -425 260 -40 27 -78 46 -86 43 -19 -7 -18 -17 6 -38 11 -10 17 -21 15 -25
-3 -4 4 -18 15 -30 11 -13 20 -27 20 -32 0 -5 6 -15 13 -22 6 -8 19 -24 27
-36 30 -45 55 -75 67 -83 7 -4 13 -15 13 -22 0 -8 5 -15 10 -15 6 0 10 -7 10
-15 0 -9 7 -18 15 -21 8 -4 15 -10 15 -14 0 -8 52 -69 103 -122 9 -10 17 -21
17 -25 0 -14 289 -289 344 -328 31 -22 56 -43 56 -47 0 -4 4 -8 10 -8 5 0 30
-16 55 -34 47 -36 201 -125 314 -182 142 -71 271 -81 401 -32 86 33 223 41
295 18 17 -5 64 -10 105 -11 79 -1 115 12 260 97 25 15 65 38 90 52 288 162
435 246 502 288 21 13 40 24 43 24 2 0 34 18 70 40 36 22 68 40 71 40 3 0 32
18 64 40 32 22 61 40 65 40 3 0 42 23 87 51 44 28 95 59 112 69 36 20 126 74
176 105 33 21 157 95 210 126 14 7 27 16 30 19 3 3 34 21 70 40 36 18 71 39
77 46 7 7 18 14 24 16 25 8 -3 45 -59 78 -184 108 -256 158 -347 242 -16 15
-33 28 -37 28 -17 0 -270 238 -335 315 -18 21 -56 63 -85 94 -29 31 -74 84
-101 118 -26 34 -53 68 -60 75 -22 22 -227 297 -227 304 0 3 -12 23 -27 43
-31 40 -48 67 -63 96 -6 11 -19 34 -30 50 -11 17 -25 42 -31 58 -6 15 -15 27
-20 27 -5 0 -9 5 -9 12 0 6 -13 39 -29 72 -33 70 -63 138 -100 229 -62 154
-85 277 -85 442 0 140 5 169 56 330 28 91 104 176 197 221 87 43 214 45 316 5
65 -25 297 -145 415 -214 142 -84 550 -272 645 -298 234 -63 218 -61 445 -62
147 -1 232 3 270 12 76 18 248 72 279 86 14 7 44 21 66 31 91 41 242 149 320
229 81 83 134 145 148 174 4 9 16 30 26 46 18 27 47 85 72 140 45 102 72 254
67 388 l-3 109 45 14 c25 8 54 19 65 23 11 5 36 15 55 22 19 7 80 43 135 80
87 59 133 96 230 184 12 11 43 48 69 83 26 34 54 62 63 62 14 0 75 -45 174
-129 20 -17 39 -31 43 -31 18 0 -3 28 -90 117 -89 91 -95 99 -89 130 3 18 12
45 20 60 8 15 15 32 15 38 0 5 8 29 18 52 21 52 37 54 97 13 24 -16 46 -30 50
-30 4 0 25 -13 48 -29 23 -16 60 -39 82 -51 22 -12 57 -31 77 -43 21 -11 41
-18 44 -14 10 9 -14 34 -65 70 -25 17 -55 40 -66 50 -11 10 -36 27 -55 38 -53
29 -152 102 -164 121 -7 12 -7 27 2 51 6 18 15 61 18 96 l7 63 31 -5 c17 -3
51 -13 76 -22 86 -33 220 -62 220 -48 0 5 -26 21 -57 37 -32 16 -66 32 -75 37
-10 5 -23 9 -29 9 -5 0 -44 15 -85 34 l-74 35 0 83 c0 94 -15 240 -31 311 -9
39 -8 59 6 112 13 46 16 82 12 124 -16 153 -86 344 -160 437 -61 78 -144 179
-169 205 -13 14 -34 39 -47 55 -41 52 -95 116 -143 168 -117 129 -106 104
-153 336 -7 36 -21 103 -30 150 -27 136 -49 210 -91 308 -20 46 -18 62 7 62
24 0 136 54 159 76 16 16 14 18 -54 67 -25 17 -66 95 -66 124 0 8 -6 27 -13
41 -8 15 -21 42 -30 60 -9 19 -17 38 -17 43 0 9 -36 66 -50 79 -3 3 -30 37
-60 75 -141 183 -414 457 -575 581 -110 84 -344 232 -452 286 -28 14 -28 19
-3 88 45 124 80 305 80 420 0 71 -22 203 -43 261 -21 61 -69 128 -110 155 -34
22 -51 26 -111 26 -43 0 -87 -7 -111 -17 -81 -34 -111 -49 -152 -77 -23 -15
-46 -28 -52 -28 -6 0 -11 -4 -11 -10 0 -5 -5 -10 -11 -10 -6 0 -23 -9 -38 -19
-53 -38 -288 -151 -361 -174 -41 -13 -104 -29 -140 -36 -36 -6 -89 -17 -118
-23 -37 -8 -59 -8 -75 -1 -12 6 -42 16 -67 23 -25 7 -56 16 -70 20 -14 4 -45
13 -70 20 -25 7 -56 16 -70 20 -14 5 -47 13 -75 20 -27 6 -66 15 -85 20 -19 5
-62 14 -95 20 -33 7 -71 16 -85 20 -14 5 -41 11 -60 14 -19 3 -55 10 -80 16
-65 15 -183 36 -325 60 -83 13 -302 39 -440 51 -118 10 -342 8 -495 -6 l-55
-5 -70 85 c-79 96 -169 175 -265 232 -64 38 -82 47 -150 76 -143 60 -384 85
-516 52z m260 -236 c72 -18 110 -30 144 -45 182 -79 315 -172 431 -298 232
-255 439 -457 528 -517 145 -98 311 -151 289 -92 -4 9 -31 51 -62 92 -30 42
-77 107 -103 145 -27 37 -74 94 -105 126 -31 32 -56 62 -56 68 0 5 38 16 84
22 107 16 408 4 756 -30 142 -13 365 -49 495 -79 22 -5 56 -12 75 -16 19 -3
51 -10 70 -15 19 -5 58 -14 85 -20 28 -7 61 -15 75 -20 14 -4 45 -13 70 -20
25 -7 72 -21 105 -32 33 -10 76 -23 95 -29 49 -15 142 -49 162 -60 10 -5 22
-9 28 -9 25 0 435 -191 570 -266 36 -20 83 -46 106 -58 157 -84 462 -293 628
-430 89 -73 121 -106 177 -181 91 -124 89 -114 129 -585 6 -69 18 -163 26
-210 16 -87 66 -233 90 -261 8 -8 14 -18 14 -22 0 -12 122 -177 243 -326 49
-60 67 -82 159 -192 20 -24 53 -64 72 -89 77 -96 158 -198 213 -267 32 -39 80
-100 108 -135 27 -35 71 -89 99 -121 32 -38 46 -61 40 -67 -7 -7 -158 -10
-400 -10 -350 -1 -394 -2 -444 -19 -30 -10 -75 -24 -100 -31 -25 -7 -55 -16
-68 -21 -80 -31 -162 40 -162 141 0 52 -14 51 -42 -2 -18 -35 -22 -59 -22
-128 0 -121 36 -184 147 -260 34 -24 96 -76 137 -116 79 -76 130 -104 186
-104 32 0 36 -4 63 -63 62 -135 75 -198 75 -367 1 -179 3 -175 -103 -281 -99
-98 -263 -201 -436 -274 -22 -9 -49 -21 -60 -25 -51 -22 -191 -64 -265 -80
-30 -7 -68 -16 -84 -21 -16 -5 -99 -9 -185 -9 -164 0 -180 3 -326 64 -84 35
-254 121 -255 129 0 5 37 7 83 5 160 -6 627 2 627 11 0 15 -41 23 -160 32 -63
4 -142 13 -175 19 -33 5 -84 13 -113 16 -29 4 -55 10 -58 15 -3 5 -15 9 -27 9
-37 0 -293 97 -337 128 -30 21 346 22 569 2 58 -6 140 -10 183 -10 66 0 81 3
99 21 26 26 13 39 -38 39 -18 0 -52 4 -75 9 -24 6 -68 15 -98 21 -30 6 -71 15
-90 20 -19 5 -75 18 -125 30 -49 12 -106 25 -125 30 -19 5 -48 12 -65 15 -16
3 -47 10 -67 15 -94 24 -126 32 -168 40 -25 5 -67 14 -95 20 -27 5 -81 16
-120 22 -94 16 -609 16 -695 0 -36 -6 -87 -16 -115 -21 -64 -12 -86 -21 -79
-32 3 -5 154 -9 341 -9 214 0 359 -4 399 -12 67 -12 86 -28 33 -28 -16 0 -49
-4 -72 -9 -23 -5 -69 -14 -102 -21 -276 -51 -431 -113 -512 -205 -53 -60 -73
-110 -73 -186 0 -70 18 -115 80 -199 43 -58 179 -196 251 -255 360 -296 763
-449 1014 -386 139 36 243 82 430 191 50 29 110 64 135 78 25 13 50 28 55 32
6 4 55 30 110 58 228 115 421 149 570 101 35 -11 79 -30 97 -43 31 -21 33 -25
36 -91 4 -93 -20 -188 -76 -305 -114 -236 -286 -396 -507 -473 -168 -58 -225
-67 -423 -67 -200 0 -331 20 -507 78 -266 88 -410 161 -721 365 -500 328 -693
447 -844 520 -151 72 -178 82 -360 124 -39 9 -154 22 -285 33 -547 44 -711 62
-895 99 -25 5 -67 14 -95 19 -65 13 -151 37 -239 66 -305 103 -499 218 -697
415 -67 68 -169 191 -169 205 0 3 -12 22 -26 43 -27 40 -81 150 -95 193 -4 14
-17 50 -28 80 -27 70 -45 144 -73 295 -19 106 -22 154 -22 405 1 263 3 298 28
450 15 91 31 197 36 235 6 39 14 88 19 109 5 22 7 44 5 48 -8 13 -24 -1 -24
-23 0 -10 -4 -19 -8 -19 -5 0 -19 -26 -32 -57 -13 -32 -34 -80 -47 -108 -55
-113 -129 -364 -163 -550 -34 -192 -42 -614 -14 -765 9 -47 19 -103 24 -125
10 -54 63 -210 95 -282 56 -124 98 -190 221 -353 61 -81 269 -294 359 -368 56
-46 173 -132 180 -132 3 0 25 -13 48 -29 23 -15 72 -43 109 -60 89 -43 93 -49
70 -102 -92 -215 -149 -481 -138 -640 15 -222 68 -398 179 -595 31 -55 136
-194 147 -194 4 0 11 19 15 43 25 160 52 274 82 344 7 17 13 39 14 50 0 10 31
77 67 148 51 98 72 131 88 133 16 2 23 -3 27 -20 3 -13 10 -36 15 -53 6 -16
25 -77 42 -135 56 -182 82 -255 134 -380 31 -73 103 -227 116 -250 5 -8 23
-42 39 -75 17 -33 44 -82 61 -110 16 -27 35 -61 40 -75 6 -13 14 -27 18 -30 4
-3 17 -25 30 -50 13 -25 32 -58 42 -75 11 -16 23 -37 27 -45 3 -8 19 -31 35
-51 15 -20 28 -40 28 -43 0 -3 20 -35 45 -72 25 -36 45 -67 45 -70 0 -3 21
-33 48 -68 26 -35 54 -74 62 -86 8 -12 39 -52 68 -89 29 -36 63 -79 75 -95 12
-15 27 -33 32 -40 6 -6 28 -34 49 -61 44 -55 110 -130 192 -217 30 -32 54 -62
54 -66 0 -5 11 -19 25 -32 63 -59 2 -65 -122 -12 -180 77 -523 258 -703 372
-58 36 -136 86 -175 110 -78 50 -461 316 -514 358 -19 15 -80 61 -137 102 -92
67 -437 327 -474 357 -8 7 -45 36 -81 65 -137 110 -396 324 -420 347 -9 9 -47
43 -85 76 -170 148 -538 517 -674 675 -12 14 -52 57 -88 95 -37 39 -92 99
-122 135 -30 36 -58 67 -62 68 -5 2 -8 9 -8 16 0 6 -8 19 -17 27 -30 26 -96
101 -132 149 -19 25 -39 50 -45 55 -9 8 -61 71 -98 120 -5 6 -22 26 -39 45
-16 19 -51 62 -77 95 -25 33 -82 104 -127 159 -44 54 -96 118 -115 141 -19 24
-57 72 -84 107 -27 35 -54 68 -61 73 -6 6 -46 57 -90 115 -43 58 -104 134
-135 170 -31 36 -80 96 -109 134 -29 38 -61 78 -71 90 -224 266 -260 306 -276
306 -14 0 -204 -145 -375 -285 -47 -38 -102 -83 -123 -100 -22 -16 -77 -60
-124 -98 -81 -64 -407 -286 -502 -341 -123 -72 -293 -150 -428 -196 -100 -34
-100 -32 17 95 65 70 219 272 336 439 33 47 87 123 120 170 88 124 178 252
232 329 27 38 80 112 119 166 39 53 73 102 75 108 10 26 664 900 747 998 9 11
35 43 57 70 22 28 46 57 55 66 8 9 33 38 55 65 22 26 47 55 55 64 8 9 44 49
80 90 155 176 559 581 665 665 28 22 52 43 55 46 3 3 46 36 95 73 298 225 485
346 730 476 66 35 131 71 145 80 38 26 70 34 70 17 0 -7 -3 -17 -7 -21 -24
-24 -73 -234 -73 -314 0 -144 78 -245 164 -214 18 7 38 12 45 12 18 0 136 58
220 109 79 48 103 48 109 0 4 -29 29 -111 48 -157 8 -18 14 -40 14 -48 0 -21
80 -186 122 -251 18 -29 40 -53 49 -53 17 0 22 10 57 120 49 151 72 198 177
360 73 112 85 134 85 153 0 7 -18 38 -40 67 -81 109 -166 320 -210 525 -93
436 -78 855 38 1033 40 61 124 147 167 170 82 44 258 65 349 41z m5009 -2107
c67 -90 83 -118 120 -205 8 -17 22 -49 31 -71 9 -21 15 -40 12 -43 -2 -2 -26
3 -53 13 -26 9 -86 20 -133 23 l-85 6 4 185 c2 102 5 188 8 193 8 13 21 -1 96
-101z m90 -446 c16 -31 21 -64 25 -167 7 -203 -10 -228 -76 -109 -40 71 -54
191 -31 261 6 19 13 40 15 47 8 26 47 8 67 -32z m765 -2070 c-3 -70 -10 -120
-19 -134 -11 -18 -11 -26 -1 -42 10 -16 10 -44 2 -128 -11 -117 -24 -173 -62
-284 -12 -35 -16 -38 -50 -38 -21 0 -38 -2 -38 -4 0 -3 9 -20 20 -40 26 -43
23 -51 -73 -199 -21 -31 -68 -92 -104 -135 -37 -42 -69 -79 -71 -82 -9 -11
-109 113 -138 172 -75 150 -76 159 -38 263 31 87 57 176 80 280 18 87 43 137
73 151 10 5 66 54 122 108 123 117 277 239 291 230 7 -5 9 -47 6 -118z m-9563
-1147 c39 -39 120 -114 180 -167 61 -53 122 -108 136 -122 15 -14 48 -44 75
-67 80 -67 473 -447 870 -839 95 -95 197 -191 225 -215 29 -24 94 -86 145
-136 51 -51 97 -93 103 -93 5 0 11 -9 14 -19 4 -18 2 -19 -37 -7 -22 8 -52 18
-66 24 -14 5 -54 18 -90 28 -118 32 -367 144 -526 235 -21 12 -135 72 -253
132 -118 60 -242 126 -275 146 -77 47 -197 104 -204 97 -6 -6 31 -124 53 -171
8 -16 26 -57 41 -90 50 -114 97 -210 105 -215 4 -3 13 -17 19 -30 11 -28 50
-94 89 -155 53 -82 67 -123 47 -131 -12 -5 -148 62 -198 97 -14 11 -29 19 -32
19 -21 0 -163 110 -235 181 -80 80 -114 110 -282 243 -69 55 -209 177 -252
219 -11 12 -25 16 -35 12 -9 -4 -26 -10 -37 -13 -11 -3 -32 -13 -47 -24 -14
-10 -29 -18 -32 -18 -6 0 -44 -16 -151 -65 -27 -13 -66 -30 -85 -38 -59 -26
-212 -74 -270 -86 -68 -13 -190 -20 -190 -10 0 4 12 17 26 28 14 11 38 37 54
58 15 21 50 61 76 89 48 50 119 129 186 208 18 22 41 46 51 55 9 8 17 21 17
28 0 7 3 13 8 13 4 0 30 28 57 61 28 34 58 71 69 83 10 11 39 48 64 81 25 33
49 62 52 65 3 3 37 46 75 95 38 50 75 96 82 103 7 7 13 17 13 20 0 4 10 18 23
32 23 25 78 97 107 140 8 12 22 30 30 40 8 10 22 28 30 40 44 65 82 110 93
110 7 0 44 -32 82 -71z"/>
<path d="M20215 16236 c-28 -12 -85 -74 -85 -92 0 -4 -11 -30 -24 -58 -43 -92
-66 -234 -66 -406 0 -124 4 -169 20 -225 27 -96 66 -186 117 -274 39 -66 65
-102 168 -227 31 -39 31 -38 1 -77 -66 -89 -93 -312 -46 -390 24 -41 46 -45
64 -12 6 11 23 39 39 63 15 24 27 47 27 52 0 35 201 152 455 264 39 17 72 36
74 41 5 12 -54 24 -121 24 -56 1 -62 13 -15 31 17 7 47 19 65 27 47 20 181 69
282 102 111 37 170 61 170 71 0 4 -30 10 -67 14 -186 16 -255 36 -383 112 -73
44 -160 117 -160 135 0 9 -67 109 -91 135 -11 11 -16 24 -12 27 9 10 55 9 89
-2 16 -5 60 -14 97 -21 101 -18 103 -5 10 71 -43 35 -109 92 -148 127 -38 35
-90 75 -115 90 -25 14 -48 31 -52 36 -13 19 19 26 69 17 91 -18 153 -22 153
-11 0 26 -67 130 -119 183 -128 133 -309 212 -396 173z"/>
<path d="M22115 16005 c-44 -46 -44 -75 -1 -123 36 -39 116 -74 203 -88 41 -6
42 -6 72 42 34 52 35 92 6 124 -21 23 -92 57 -135 65 -110 19 -108 20 -145
-20z"/>
<path d="M22590 15788 c-69 -40 -79 -53 -80 -102 0 -31 6 -45 35 -72 51 -48
128 -74 175 -60 78 23 140 85 140 139 0 30 -62 89 -116 112 -54 22 -93 18
-154 -17z"/>
<path d="M23562 15576 c-31 -50 83 -198 195 -251 61 -29 74 -30 113 -10 37 19
38 41 4 91 -56 84 -96 123 -147 147 -57 28 -153 41 -165 23z"/>
<path d="M23093 15568 c-46 -22 -32 -99 31 -161 79 -80 188 -112 220 -65 19
26 21 96 5 132 -32 69 -188 127 -256 94z"/>
<path d="M22045 15456 c-150 -69 -170 -247 -25 -221 45 8 136 63 158 95 16 23
42 86 42 102 0 4 -10 16 -22 28 -29 27 -90 26 -153 -4z"/>
<path d="M24040 15265 c-10 -12 -7 -27 21 -81 19 -36 40 -70 46 -76 7 -6 13
-16 13 -22 0 -7 22 -33 48 -59 56 -55 92 -62 118 -21 16 24 16 29 0 79 -36
115 -201 235 -246 180z"/>
<path d="M23513 15128 c-41 -45 -46 -65 -33 -134 6 -36 18 -82 28 -102 18 -39
81 -126 130 -179 17 -18 52 -61 79 -95 57 -75 190 -208 208 -208 24 0 37 30
37 88 0 57 -8 86 -52 202 -12 30 -32 87 -45 126 -63 188 -187 324 -296 324
-24 0 -42 -7 -56 -22z"/>
<path d="M22689 15092 c-131 -65 -205 -145 -246 -263 -26 -78 2 -110 98 -110
51 -1 73 6 145 42 101 51 220 146 263 211 67 101 28 148 -119 148 -72 -1 -93
-5 -141 -28z"/>
<path d="M24547 15103 c-35 -34 72 -244 160 -313 85 -67 113 47 38 155 -80
116 -169 187 -198 158z"/>
<path d="M21695 15065 c-61 -28 -95 -73 -95 -124 0 -63 46 -76 133 -37 66 29
117 77 117 110 0 53 -88 82 -155 51z"/>
<path d="M23147 14841 c-38 -8 -97 -58 -97 -81 0 -27 52 -74 97 -88 67 -20
180 -15 219 8 124 77 -44 201 -219 161z"/>
<path d="M24416 14678 c-18 -25 -20 -41 -7 -66 4 -9 16 -35 26 -57 22 -46 83
-115 102 -115 26 0 63 32 63 55 0 33 -26 102 -50 132 -25 32 -83 73 -104 73
-8 0 -22 -10 -30 -22z"/>
<path d="M22020 14641 c-145 -56 -213 -124 -214 -212 -1 -33 5 -53 18 -68 20
-22 51 -28 60 -12 4 5 36 19 74 31 114 37 190 78 248 136 70 71 70 91 -3 132
-32 17 -129 13 -183 -7z"/>
<path d="M24870 14493 c0 -48 36 -120 72 -147 23 -16 33 -18 55 -10 24 9 28
15 25 44 -5 63 -63 130 -125 145 -26 7 -27 6 -27 -32z"/>
<path d="M18580 14461 c-130 -42 -381 -252 -452 -377 -39 -69 -54 -107 -74
-188 -13 -54 -13 -61 4 -89 10 -17 32 -39 49 -49 28 -17 35 -17 88 -3 121 31
217 88 307 182 140 144 248 329 248 423 0 69 -29 101 -96 106 -27 2 -60 0 -74
-5z"/>
<path d="M21360 14423 c-121 -21 -259 -105 -306 -185 -46 -78 -46 -94 -6 -140
18 -21 104 -25 161 -7 20 6 49 15 65 20 92 28 231 145 242 204 8 44 -1 82 -24
93 -22 12 -100 21 -132 15z"/>
<path d="M23099 14276 c-3 -4 -55 -11 -115 -16 -102 -9 -162 -16 -351 -40
-119 -14 -219 -36 -240 -53 -23 -17 -14 -47 19 -67 41 -25 81 -30 244 -34 72
-2 136 -6 142 -10 6 -3 16 -23 22 -44 13 -42 63 -167 91 -228 48 -103 185
-187 369 -225 153 -31 373 -36 444 -9 39 14 164 12 210 -4 52 -18 75 -41 127
-128 49 -84 66 -100 91 -87 31 16 52 9 118 -41 93 -71 116 -66 62 14 -15 22
-31 48 -35 56 -4 8 -16 29 -26 45 -35 54 -151 297 -151 314 0 5 -6 22 -14 38
-8 15 -21 44 -29 63 -8 19 -29 65 -46 102 -17 37 -31 71 -31 76 0 5 -13 28
-30 50 -16 23 -30 45 -30 49 0 14 -65 78 -110 110 -93 64 -115 67 -435 71
-160 2 -293 1 -296 -2z m122 -161 c4 -16 12 -61 17 -99 13 -87 27 -101 97
-101 47 0 57 4 72 25 23 31 43 96 43 136 0 60 49 65 113 13 131 -108 85 -316
-87 -399 -205 -98 -446 53 -471 296 -11 108 9 135 116 153 80 13 92 10 100
-24z"/>
<path d="M24264 14245 c-14 -54 110 -235 161 -235 44 0 55 10 55 50 0 29 -10
52 -44 98 -77 105 -157 145 -172 87z"/>
<path d="M20585 13941 c-70 -23 -172 -105 -244 -199 -47 -61 -80 -147 -81
-208 0 -69 14 -81 78 -64 26 7 51 17 57 21 5 5 17 9 26 9 28 0 163 94 207 146
69 80 120 204 106 259 -9 38 -86 57 -149 36z"/>
<path d="M21905 13896 c-152 -75 -266 -186 -336 -326 -40 -82 -39 -116 6 -137
30 -14 43 -15 107 -4 40 7 98 22 128 34 204 78 390 265 390 392 0 45 -1 46
-46 65 -78 34 -144 27 -249 -24z"/>
<path d="M18874 13757 c-84 -58 -115 -86 -159 -143 -58 -76 -75 -124 -75 -214
0 -74 2 -80 31 -109 84 -85 230 9 334 214 46 91 50 105 50 170 0 67 -2 73 -30
98 -43 38 -79 34 -151 -16z"/>
<path d="M22516 13617 c-16 -12 -19 -25 -17 -83 1 -62 4 -71 29 -91 15 -13 41
-23 57 -23 37 0 91 32 100 59 9 30 -12 94 -39 120 -31 29 -103 39 -130 18z"/>
<path d="M21075 13600 c-129 -43 -232 -118 -312 -227 -62 -83 -79 -117 -93
-178 -14 -60 3 -88 66 -116 84 -35 161 -20 274 55 157 105 239 217 248 339 4
55 3 59 -30 90 -51 48 -92 58 -153 37z"/>
<path d="M17650 13463 c-80 -13 -174 -77 -299 -202 -189 -189 -268 -325 -286
-494 -13 -117 25 -183 119 -211 43 -13 57 -13 115 0 86 20 200 94 277 181 51
57 71 84 131 179 76 120 113 232 113 347 0 92 -16 143 -56 178 -21 18 -75 29
-114 22z"/>
<path d="M22834 13375 c-23 -35 -11 -88 25 -115 35 -24 122 -28 140 -6 13 16
6 82 -12 104 -15 19 -75 42 -108 42 -19 0 -34 -8 -45 -25z"/>
<path d="M22081 13251 c-28 -27 -31 -34 -31 -93 0 -68 10 -91 64 -140 27 -25
112 -58 148 -58 8 0 32 15 52 33 36 30 38 35 39 97 2 61 -1 69 -32 108 -43 55
-96 82 -160 82 -40 0 -54 -5 -80 -29z"/>
<path d="M21459 13197 c-30 -20 -34 -28 -37 -73 -3 -60 9 -74 82 -92 41 -11
56 -10 97 3 102 34 108 124 12 174 -38 19 -116 14 -154 -12z"/>
<path d="M20138 13125 c-119 -44 -182 -87 -235 -157 -55 -73 -71 -106 -79
-166 -6 -49 -5 -53 29 -87 34 -34 38 -35 107 -35 59 0 82 5 134 30 108 52 206
169 228 271 16 79 7 106 -46 130 -62 27 -95 30 -138 14z"/>
<path d="M23046 13034 c-29 -30 -35 -86 -12 -116 19 -26 86 -24 114 2 35 33
53 66 46 84 -7 19 -74 56 -102 56 -11 0 -31 -12 -46 -26z"/>
<path d="M22630 12965 c-36 -13 -85 -63 -101 -103 -12 -30 10 -83 44 -105 16
-10 46 -17 74 -17 39 0 56 6 84 30 80 65 72 151 -18 198 -26 14 -37 14 -83 -3z"/>
<path d="M23465 12934 c-36 -19 -95 -84 -95 -105 0 -27 34 -49 76 -49 94 0
153 139 69 164 -11 3 -33 -1 -50 -10z"/>
<path d="M23715 12868 c-22 -18 -43 -37 -47 -43 -12 -16 -9 -80 4 -93 44 -44
178 50 178 126 0 52 -76 58 -135 10z"/>
<path d="M18264 12709 c-27 -18 -55 -40 -62 -50 -7 -10 -20 -26 -30 -35 -19
-20 -24 -28 -70 -116 -61 -115 -88 -206 -106 -346 -26 -205 32 -395 140 -458
50 -29 81 -30 137 -4 52 25 74 44 112 95 117 156 175 360 175 615 0 159 -16
215 -79 281 -46 48 -49 49 -107 49 -50 0 -68 -5 -110 -31z"/>
<path d="M21882 12700 c-58 -36 -67 -92 -22 -143 34 -40 85 -57 167 -57 70 0
115 13 161 47 56 42 36 115 -42 152 -64 30 -216 30 -264 1z"/>
<path d="M21345 12608 c-88 -31 -116 -56 -129 -115 -9 -39 15 -86 51 -102 13
-6 60 -11 104 -11 89 0 154 23 189 68 23 28 25 46 9 91 -13 36 -30 47 -105 67
-62 16 -77 16 -119 2z"/>
<path d="M23104 12568 c-79 -53 -121 -153 -75 -178 11 -5 44 -10 73 -10 62 0
103 21 144 75 36 48 36 90 0 122 -39 33 -83 30 -142 -9z"/>
<path d="M23519 12540 c-20 -11 -48 -33 -63 -50 -47 -57 -30 -90 46 -90 48 0
83 15 121 53 18 18 18 20 -2 63 -24 50 -43 55 -102 24z"/>
<path d="M20578 12460 c-57 -30 -78 -68 -78 -138 0 -78 25 -115 105 -156 53
-27 70 -30 145 -31 94 0 162 16 200 47 22 18 25 28 25 83 0 54 -4 67 -25 90
-96 103 -278 154 -372 105z"/>
<path d="M22629 12422 c-39 -10 -93 -51 -107 -80 -16 -34 -15 -53 4 -80 14
-20 24 -22 97 -22 66 0 89 5 121 23 48 27 61 46 52 80 -12 48 -47 79 -96 82
-25 2 -57 1 -71 -3z"/>
<path d="M20050 12200 c-19 -10 -49 -33 -66 -52 -85 -91 -70 -248 34 -353 45
-45 134 -106 182 -125 19 -7 39 -17 45 -22 5 -4 37 -8 72 -8 239 0 278 234 73
440 -120 121 -252 167 -340 120z"/>
<path d="M23857 12109 c-64 -53 -46 -109 36 -109 64 0 108 89 61 125 -29 22
-56 18 -97 -16z"/>
<path d="M24186 12074 c-34 -35 -35 -76 0 -99 31 -20 60 -14 97 20 32 31 34
58 7 85 -28 28 -72 25 -104 -6z"/>
<path d="M21845 12066 c-5 -2 -22 -7 -36 -10 -15 -3 -33 -19 -44 -39 -17 -32
-17 -35 0 -71 45 -94 216 -154 318 -111 47 19 87 63 87 95 0 63 -110 125 -236
134 -43 3 -83 4 -89 2z"/>
<path d="M24533 12058 c-32 -15 -60 -74 -47 -96 18 -29 76 -27 113 3 68 58 16
133 -66 93z"/>
<path d="M24831 11994 c-26 -33 -27 -58 -1 -84 27 -27 56 -25 85 5 45 44 27
105 -30 105 -24 0 -39 -7 -54 -26z"/>
<path d="M22643 11891 c-98 -12 -78 -25 57 -36 41 -3 109 -10 150 -16 41 -6
104 -14 140 -19 63 -8 159 -22 270 -40 30 -5 84 -14 120 -19 66 -10 145 -24
235 -42 28 -5 70 -14 95 -18 25 -5 92 -19 150 -31 112 -24 152 -32 240 -49 30
-5 78 -15 105 -21 28 -6 70 -15 95 -20 25 -5 76 -16 115 -25 38 -8 79 -15 91
-15 25 0 82 57 68 69 -8 9 -69 29 -154 52 -19 6 -48 14 -65 19 -105 31 -174
48 -332 81 -24 5 -62 13 -85 18 -183 39 -462 80 -688 102 -125 12 -541 19
-607 10z"/>
<path d="M25005 11658 c-58 -69 13 -154 83 -100 34 26 35 87 3 113 -33 27 -55
24 -86 -13z"/>
<path d="M24719 11651 c-33 -33 -38 -74 -13 -109 21 -30 93 -31 119 -2 27 30
24 84 -5 115 -31 33 -65 32 -101 -4z"/>
<path d="M20986 11444 c-89 -32 -136 -87 -136 -158 0 -39 53 -100 111 -129
203 -99 457 -60 515 79 32 77 -26 155 -144 189 -31 9 -70 21 -86 26 -45 14
-216 10 -260 -7z"/>
<path d="M24780 11388 c-26 -28 -26 -68 1 -102 26 -33 56 -33 91 1 36 35 37
74 2 102 -34 27 -68 27 -94 -1z"/>
<path d="M25061 11384 c-27 -35 -26 -50 4 -80 28 -28 51 -22 79 18 21 29 20
40 -4 66 -28 29 -54 28 -79 -4z"/>
<path d="M18875 11218 c-12 -40 -29 -241 -28 -348 1 -132 12 -213 43 -308 59
-182 185 -330 337 -396 23 -10 45 -16 50 -13 25 16 -7 212 -59 362 -5 17 -14
46 -18 65 -10 43 -39 121 -49 135 -5 5 -18 39 -30 75 -31 90 -199 427 -218
434 -21 8 -23 8 -28 -6z"/>
<path d="M26705 9825 c-144 -36 -263 -116 -341 -230 -53 -77 -79 -215 -71
-375 8 -145 13 -189 32 -242 8 -24 15 -53 15 -66 0 -13 6 -35 14 -50 19 -37
24 -94 9 -99 -15 -5 -49 68 -58 127 -14 94 -27 122 -62 136 -50 22 -112 18
-303 -17 -426 -79 -851 -341 -1341 -827 -248 -245 -269 -278 -269 -420 0 -129
34 -223 138 -381 20 -31 39 -60 42 -66 3 -5 18 -29 33 -53 19 -29 27 -54 25
-74 -3 -28 -12 -36 -98 -80 -52 -28 -108 -57 -125 -66 -34 -17 -137 -77 -370
-212 -88 -51 -180 -104 -205 -118 -25 -13 -70 -39 -100 -57 -30 -18 -89 -51
-130 -75 -41 -23 -97 -56 -123 -71 -27 -16 -51 -29 -53 -29 -3 0 -32 -18 -64
-40 -32 -22 -61 -40 -64 -40 -3 0 -60 -33 -128 -73 -174 -104 -407 -241 -448
-264 -19 -11 -73 -44 -120 -73 -47 -29 -101 -62 -120 -72 -69 -39 -156 -92
-222 -135 -37 -23 -70 -43 -74 -43 -3 0 -24 -13 -47 -29 -76 -52 -147 -91
-167 -91 -10 0 -32 13 -48 29 -129 130 -245 72 -214 -107 13 -76 10 -81 -51
-112 -23 -12 -57 -34 -76 -48 -18 -15 -45 -34 -59 -42 -32 -20 -40 -40 -15
-40 27 1 119 34 191 69 34 17 68 31 75 31 8 0 29 -13 47 -30 29 -26 41 -30 91
-30 52 0 60 3 84 32 25 29 27 38 22 89 -7 64 -5 67 93 128 30 19 91 57 135 84
44 27 95 58 114 69 19 11 60 37 92 59 32 21 60 39 63 39 3 0 58 32 123 71 65
40 136 81 158 92 22 11 59 33 82 48 23 16 45 29 48 29 4 0 27 14 52 30 24 17
46 30 48 30 2 0 28 14 57 31 29 18 69 41 88 52 19 11 47 27 62 36 15 9 112 65
215 125 103 60 213 124 243 141 30 18 96 56 145 84 50 28 97 56 105 61 8 5 89
50 180 101 224 125 214 120 315 174 50 26 101 56 115 65 35 25 131 70 147 70
8 0 32 -29 54 -65 35 -54 50 -69 97 -91 79 -38 197 -39 258 -3 120 70 184 175
184 300 0 54 -22 122 -52 159 -26 31 -163 120 -185 120 -13 0 -25 6 -27 13 -2
6 -9 37 -16 67 -7 30 -21 70 -31 88 -10 18 -19 37 -19 42 0 17 39 31 58 21 14
-7 33 -2 81 25 55 30 306 191 383 245 15 10 32 19 38 19 5 0 10 5 10 10 0 6 7
10 15 10 8 0 15 -2 15 -5 0 -3 -35 -47 -77 -98 -43 -50 -81 -96 -86 -102 -121
-159 -177 -242 -177 -262 0 -5 26 -36 58 -69 91 -94 126 -185 120 -310 -2 -57
-10 -92 -27 -128 -40 -81 -149 -179 -241 -217 -78 -31 -219 -11 -318 47 -24
14 -48 24 -55 21 -33 -11 -174 -283 -257 -497 -12 -30 -28 -71 -36 -90 -7 -19
-28 -80 -44 -135 -17 -55 -38 -115 -46 -133 -7 -18 -14 -41 -14 -52 0 -10 -6
-31 -14 -47 -8 -15 -23 -46 -33 -67 -29 -64 -91 -122 -279 -263 -16 -12 -74
-54 -129 -93 -229 -161 -271 -191 -285 -203 -16 -13 -196 -144 -265 -192 -167
-118 -425 -348 -425 -379 0 -7 9 -21 20 -31 11 -10 20 -21 20 -25 0 -4 -33 -8
-74 -8 -70 0 -77 -2 -137 -42 -35 -24 -72 -51 -81 -61 -10 -10 -48 -43 -85
-72 -38 -30 -84 -71 -102 -91 l-35 -36 -110 0 c-61 0 -145 4 -186 9 -41 6
-118 15 -170 21 -181 20 -221 27 -605 100 -33 7 -87 19 -120 27 -33 8 -78 19
-100 23 -75 15 -391 110 -455 138 -19 8 -51 21 -70 29 -19 8 -52 22 -72 33
-64 31 -49 12 45 -58 117 -88 317 -195 537 -289 19 -8 44 -19 55 -24 41 -19
156 -59 355 -125 113 -37 214 -70 225 -75 21 -8 134 -38 175 -46 14 -2 34 -8
45 -13 11 -5 36 -11 55 -14 19 -3 55 -11 80 -17 25 -5 59 -13 75 -15 17 -3 39
-9 50 -14 11 -5 36 -11 55 -14 19 -3 53 -10 75 -15 69 -16 338 -72 390 -82 28
-5 70 -14 95 -19 25 -6 70 -15 100 -20 30 -6 78 -15 105 -20 28 -6 73 -15 100
-20 28 -6 73 -14 100 -20 49 -10 124 -23 215 -40 25 -4 88 -17 140 -29 52 -12
118 -26 145 -31 28 -6 70 -15 95 -21 25 -5 63 -14 85 -18 80 -17 142 -31 225
-52 47 -11 103 -24 125 -29 22 -5 60 -14 85 -20 50 -12 108 -25 173 -39 23 -5
67 -14 97 -21 185 -41 265 -51 430 -55 138 -3 206 4 323 34 47 11 197 83 197
94 0 4 5 7 12 7 20 0 96 88 118 136 14 32 20 68 20 115 0 67 -1 70 -31 88 -17
10 -52 21 -78 25 -48 6 -183 -6 -276 -24 -172 -35 -347 -42 -580 -22 -262 23
-333 31 -535 62 -30 5 -86 13 -125 19 -38 5 -99 15 -135 21 -85 15 -154 27
-210 35 -93 14 -97 17 -96 97 l1 70 -51 47 c-27 25 -72 57 -100 71 -27 13 -61
32 -76 42 -17 12 -45 18 -82 18 -31 0 -56 4 -56 8 0 29 138 51 205 33 144 -37
133 -37 163 -9 27 26 357 248 367 248 3 0 15 8 26 18 10 11 32 25 47 33 15 8
29 17 32 20 3 3 48 34 100 69 52 35 131 89 175 120 44 31 146 102 227 158 81
55 159 111 175 124 55 46 232 229 338 349 116 132 162 189 246 298 52 68 107
143 123 165 16 22 34 45 41 51 19 16 75 92 75 102 0 4 10 19 23 33 12 14 33
42 47 62 41 62 66 45 36 -24 -8 -18 -22 -53 -31 -78 -19 -50 -28 -69 -74 -152
-17 -32 -45 -84 -62 -115 -17 -32 -38 -65 -45 -74 -8 -8 -14 -20 -14 -26 0 -6
-3 -13 -7 -15 -9 -3 -53 -64 -53 -72 0 -8 -42 -68 -83 -118 -20 -25 -37 -50
-37 -56 0 -6 -3 -12 -7 -14 -5 -1 -20 -21 -36 -44 -15 -22 -35 -49 -45 -60 -9
-11 -28 -35 -41 -54 -43 -61 -254 -301 -362 -411 -165 -170 -259 -283 -259
-314 0 -7 -14 -28 -30 -45 -31 -33 -31 -33 -105 -27 -68 6 -74 5 -80 -13 -3
-11 -36 -38 -73 -59 -127 -76 -186 -120 -279 -212 -51 -50 -93 -93 -93 -94 0
-4 107 -24 160 -30 30 -4 82 -10 115 -15 33 -6 105 -14 160 -20 138 -14 168
-18 265 -36 214 -40 377 -54 570 -47 85 2 179 9 209 14 30 5 97 9 148 9 110 0
152 -16 226 -85 51 -47 51 -47 212 -65 55 -6 116 -16 136 -21 20 -5 60 -9 89
-9 29 0 69 -4 89 -9 20 -6 122 -19 226 -31 105 -12 209 -25 232 -29 106 -20
337 -7 463 27 238 63 440 265 440 439 0 64 -19 121 -48 144 -20 15 -41 19
-108 19 -46 0 -93 -4 -106 -9 -50 -21 -270 -102 -340 -125 -169 -57 -284 -81
-543 -116 -109 -14 -838 -13 -907 1 -85 18 -104 33 -140 106 -47 96 -103 146
-234 209 -61 30 -120 54 -132 54 -12 0 -30 4 -40 9 -9 5 -25 12 -34 15 -10 3
-18 10 -18 16 0 13 95 4 185 -17 82 -20 156 -27 164 -16 3 5 26 23 51 40 25
17 160 146 300 285 319 319 427 433 515 543 22 27 46 56 52 63 43 46 206 276
223 315 6 12 14 29 18 37 25 43 33 65 51 143 26 104 26 131 2 229 -33 133 -96
224 -235 337 -81 66 -224 158 -329 210 -37 19 -70 38 -73 43 -7 11 39 11 51 0
6 -5 44 -19 85 -32 41 -13 93 -31 115 -40 102 -44 84 -50 177 59 46 54 101
120 123 146 52 64 173 204 188 220 7 7 35 39 64 71 28 33 66 75 83 94 17 19
53 59 78 89 79 92 155 171 164 171 4 0 8 -12 8 -27 0 -35 38 -147 69 -203 23
-43 69 -108 112 -160 11 -14 44 -54 73 -90 66 -81 266 -279 366 -361 41 -34
106 -82 145 -107 38 -25 76 -52 83 -61 18 -22 52 -99 52 -119 1 -24 31 -57 71
-80 19 -10 39 -29 45 -41 7 -13 17 -28 23 -34 6 -6 11 -18 11 -27 0 -15 -102
-119 -149 -152 -12 -8 -38 -30 -59 -49 -20 -19 -57 -50 -82 -70 -25 -20 -56
-47 -70 -58 -14 -12 -36 -32 -50 -43 -14 -12 -66 -58 -115 -102 -50 -45 -131
-115 -179 -156 -49 -41 -129 -111 -180 -155 -50 -44 -118 -102 -150 -130 -32
-27 -63 -54 -70 -60 -6 -5 -43 -37 -81 -70 -39 -32 -97 -84 -130 -115 -34 -30
-83 -73 -109 -95 -27 -22 -72 -61 -100 -87 -28 -25 -64 -57 -81 -69 -16 -13
-54 -45 -83 -71 -30 -26 -60 -48 -68 -48 -8 0 -32 9 -54 20 -50 26 -67 25 -91
-3 -22 -26 -24 -50 -5 -66 35 -29 27 -52 -45 -126 -94 -97 -94 -133 1 -79 119
69 106 65 194 58 70 -5 85 -4 99 10 23 23 21 63 -3 78 -26 17 -25 42 3 61 12
8 33 26 47 39 14 14 84 74 155 133 72 60 132 111 135 115 3 3 17 15 32 26 15
12 51 41 80 66 52 45 251 214 297 253 28 24 24 20 126 110 44 39 133 115 199
170 65 55 153 129 195 165 398 337 433 364 455 350 93 -59 179 -67 262 -22 65
34 124 81 124 99 0 7 3 13 8 13 7 0 31 49 61 123 15 37 14 121 -1 166 -20 58
-60 113 -111 151 -43 33 -85 51 -212 89 -38 12 -77 53 -111 116 -6 11 -36 69
-68 129 -32 60 -63 118 -69 129 -24 41 -136 207 -148 217 -3 3 -33 42 -67 86
-68 90 -83 120 -107 209 -24 89 -42 154 -59 212 -9 28 -16 60 -16 70 0 19 -33
121 -50 151 -5 9 -11 24 -15 32 -22 54 -97 150 -169 217 -73 67 -196 133 -269
144 l-51 8 -53 -50 c-78 -74 -149 -103 -248 -103 -69 0 -87 4 -130 29 -120 68
-173 135 -72 91 18 -7 45 -18 60 -25 15 -6 65 -11 111 -11 73 0 88 3 121 26
40 27 74 63 75 78 0 5 6 17 14 25 8 9 18 38 23 65 12 70 27 75 90 33 61 -41
121 -55 152 -35 31 19 82 127 127 272 14 44 28 67 57 89 44 36 48 52 10 42
-71 -17 -196 -23 -313 -14 -145 11 -264 25 -300 34 -14 3 -45 11 -70 17 -84
19 -150 45 -150 60 0 11 169 10 248 -2 35 -5 175 -12 313 -16 220 -6 249 -5
249 8 0 9 -7 21 -15 28 -11 9 -15 33 -15 84 0 39 -5 89 -11 111 -5 22 -14 54
-18 70 -16 62 -67 149 -123 210 -111 121 -235 176 -391 174 -51 -1 -114 -7
-142 -14z"/>
<path d="M7935 9490 c-16 -26 54 -178 107 -231 47 -47 142 -93 231 -110 126
-24 272 18 366 106 47 44 91 114 91 146 0 8 7 27 15 43 26 49 9 56 -125 56
l-118 0 -26 -45 c-32 -54 -69 -75 -132 -75 -60 0 -115 31 -143 81 l-22 39
-119 0 c-69 0 -121 -4 -125 -10z"/>
<path d="M9855 9024 c-103 -15 -228 -68 -313 -132 -85 -63 -161 -176 -183
-272 -4 -19 -12 -53 -18 -75 -29 -120 -41 -622 -20 -889 15 -192 50 -321 123
-452 34 -61 181 -184 220 -184 8 0 17 -4 20 -8 3 -5 29 -14 58 -20 29 -6 67
-14 83 -18 59 -13 250 -16 305 -4 165 36 234 72 351 185 45 44 109 150 109
182 0 10 6 35 14 58 16 44 40 255 35 295 l-4 25 -200 0 -200 0 -5 -100 c-6
-105 -25 -161 -74 -216 -48 -55 -133 -80 -216 -64 -88 16 -123 43 -173 134
-28 50 -43 457 -30 772 l10 236 33 59 c19 35 50 73 77 93 43 33 49 35 126 35
98 1 141 -16 186 -73 17 -21 31 -43 31 -49 0 -5 7 -23 15 -38 10 -20 15 -60
15 -131 0 -75 3 -103 13 -104 51 -6 374 5 382 12 12 12 13 181 1 259 -8 59
-38 156 -59 193 -48 86 -132 168 -221 217 -100 55 -169 71 -321 75 -77 2 -153
1 -170 -1z"/>
<path d="M2153 8988 c-9 -11 -27 -76 -53 -188 -5 -19 -18 -71 -30 -115 -12
-44 -26 -96 -31 -115 -24 -100 -40 -160 -53 -210 -8 -30 -27 -104 -42 -165
-14 -60 -30 -119 -35 -130 -5 -11 -13 -40 -19 -65 -5 -25 -16 -70 -24 -100 -8
-30 -31 -116 -50 -190 -19 -74 -42 -160 -51 -190 -9 -30 -20 -71 -25 -90 -5
-19 -23 -89 -40 -155 -41 -152 -61 -258 -51 -268 4 -4 99 -6 211 -5 l204 3 23
115 c13 63 30 146 37 185 8 38 21 74 30 80 17 13 445 13 483 1 16 -5 24 -18
28 -44 4 -20 23 -104 43 -187 l37 -150 191 -3 c218 -3 213 -5 195 77 -36 171
-47 216 -68 301 -14 52 -28 111 -32 130 -5 19 -13 53 -19 75 -6 22 -18 72 -27
110 -9 39 -23 96 -30 128 -8 31 -21 83 -29 115 -8 31 -20 77 -27 102 -6 25
-15 61 -19 80 -4 19 -20 82 -34 140 -15 58 -33 130 -41 160 -7 30 -19 75 -26
100 -6 25 -15 61 -19 80 -7 34 -43 179 -76 305 -26 98 0 90 -276 93 -189 2
-248 -1 -255 -10z m267 -510 c0 -2 14 -68 31 -148 17 -80 37 -179 44 -220 8
-41 21 -106 30 -145 42 -180 51 -237 41 -240 -20 -6 -281 -12 -314 -7 -31 4
-32 6 -26 41 3 20 9 50 14 66 4 17 15 66 25 110 9 44 23 105 31 136 8 30 14
69 14 85 0 17 4 34 9 40 5 5 14 32 20 59 6 28 17 83 26 124 15 72 28 101 46
101 5 0 9 -1 9 -2z"/>
<path d="M3590 8980 c-7 -14 -9 -147 -7 -418 2 -218 0 -534 -5 -702 -9 -330
-19 -401 -65 -446 -32 -32 -86 -54 -132 -54 -72 0 -76 -9 -72 -176 1 -82 7
-157 13 -168 9 -17 18 -18 107 -12 240 17 299 35 377 111 72 72 107 154 126
299 6 44 14 333 17 641 l6 560 173 3 c133 2 173 0 177 -10 2 -7 6 -371 9 -808
3 -437 5 -796 5 -797 1 -2 88 -3 195 -3 l195 0 6 53 c8 67 -1 1923 -10 1937
-4 7 -187 10 -555 10 -539 0 -549 0 -560 -20z"/>
<path d="M4892 8987 c-13 -15 -11 -341 1 -354 5 -4 102 -10 215 -13 l207 -5 5
-797 c3 -548 8 -800 16 -808 7 -7 75 -10 200 -8 l189 3 5 805 c3 443 6 806 8
807 1 1 90 3 197 5 140 2 198 7 207 16 14 14 18 328 4 350 -11 18 -1239 17
-1254 -1z"/>
<path d="M6545 8988 c-28 -86 -35 -111 -35 -124 0 -8 -7 -39 -15 -67 -35 -115
-51 -174 -89 -319 -7 -29 -21 -82 -31 -118 -9 -36 -23 -87 -30 -115 -7 -27
-20 -77 -29 -110 -8 -33 -25 -98 -37 -145 -11 -47 -27 -107 -34 -135 -8 -27
-33 -126 -56 -220 -22 -93 -47 -185 -55 -203 -8 -18 -14 -44 -14 -57 0 -14 -4
-33 -10 -43 -8 -15 -28 -85 -50 -182 -5 -19 -14 -54 -20 -77 -21 -75 -25 -74
196 -71 l197 3 20 35 c11 19 23 58 28 85 30 179 48 247 69 260 20 13 458 11
475 -1 16 -12 33 -71 76 -259 12 -55 26 -106 32 -112 7 -10 57 -13 187 -13
159 0 179 2 193 18 21 23 21 50 3 99 -7 21 -19 63 -25 93 -6 30 -18 84 -27
120 -8 36 -19 87 -24 115 -5 27 -14 61 -19 75 -5 14 -17 59 -26 100 -10 41
-22 89 -27 105 -6 17 -17 59 -24 95 -8 36 -19 85 -24 109 -6 25 -14 59 -19 75
-6 17 -17 63 -26 101 -9 39 -22 95 -30 125 -8 30 -26 102 -40 160 -15 58 -33
130 -40 160 -13 55 -33 136 -59 240 -25 99 -46 171 -56 191 -10 18 -24 19
-256 19 -187 0 -246 -3 -249 -12z m265 -504 c0 -8 13 -70 29 -137 15 -67 36
-165 45 -217 10 -52 24 -133 33 -180 8 -47 22 -103 29 -125 8 -23 14 -55 14
-72 0 -26 -5 -32 -27 -37 -39 -8 -290 -4 -304 5 -12 7 -6 60 26 206 9 40 22
103 29 140 8 38 24 113 36 168 12 55 25 123 29 150 9 62 37 129 51 120 5 -3
10 -13 10 -21z"/>
<path d="M7743 8992 c-8 -5 -13 -235 -17 -867 -7 -877 -2 -1099 25 -1116 8 -5
91 -8 184 -6 l170 2 44 90 c50 104 88 184 129 275 115 252 140 307 194 420 28
58 57 117 64 132 8 14 14 33 14 41 0 8 14 39 30 70 17 31 30 61 30 67 0 6 10
24 22 40 16 22 24 27 30 18 5 -7 8 -256 8 -553 -1 -297 -1 -555 -1 -572 l1
-33 190 0 189 0 6 33 c3 17 4 466 3 997 l-3 965 -175 0 -175 0 -50 -101 c-27
-55 -70 -143 -94 -195 -24 -52 -70 -150 -103 -219 -33 -69 -73 -154 -90 -190
-17 -36 -35 -72 -39 -80 -5 -8 -14 -26 -20 -40 -5 -13 -21 -46 -35 -73 -13
-27 -24 -57 -24 -67 0 -9 -7 -23 -15 -30 -8 -7 -15 -27 -16 -44 -1 -40 -7 -54
-46 -101 -25 -30 -36 -36 -44 -28 -9 9 -12 158 -10 576 2 509 0 566 -14 581
-14 13 -43 16 -183 16 -92 0 -172 -4 -179 -8z"/>
<path d="M10908 8993 c-17 -4 -18 -60 -18 -988 0 -840 2 -984 14 -994 22 -18
367 -11 389 8 15 12 17 58 17 467 0 380 2 454 14 454 7 0 17 -8 20 -17 9 -24
55 -109 89 -160 15 -24 27 -49 27 -56 0 -7 4 -17 9 -22 5 -6 40 -71 78 -145
39 -74 85 -162 103 -195 18 -33 46 -85 62 -115 16 -30 33 -62 37 -70 5 -8 24
-46 42 -85 l34 -70 230 0 c224 0 230 1 233 20 3 22 -15 68 -50 125 -33 56 -76
133 -92 165 -8 17 -28 53 -45 80 -16 28 -48 86 -71 130 -22 44 -50 96 -62 115
-11 19 -45 82 -75 140 -30 58 -64 121 -75 140 -59 100 -69 128 -62 164 3 20
11 39 16 42 5 3 14 16 19 27 5 12 17 34 27 48 9 15 64 104 122 198 58 95 113
184 122 199 10 15 22 36 28 47 6 11 24 43 41 70 16 28 37 64 45 80 20 40 35
65 60 100 19 27 54 93 54 102 0 6 -428 3 -444 -3 -8 -3 -33 -42 -56 -87 -23
-45 -50 -95 -61 -112 -10 -16 -22 -37 -26 -45 -3 -8 -18 -33 -32 -55 -38 -60
-47 -75 -76 -130 -14 -27 -35 -63 -45 -80 -11 -16 -31 -54 -45 -82 -15 -29
-30 -55 -36 -58 -5 -4 -9 -13 -9 -20 0 -8 -19 -47 -43 -87 -23 -40 -51 -91
-62 -112 -11 -22 -24 -40 -30 -40 -6 -1 -12 160 -15 454 l-5 455 -190 1 c-104
1 -198 0 -207 -3z"/>
<path d="M12547 8993 c-9 -8 -9 -1956 -1 -1978 5 -13 35 -15 195 -15 l189 0
30 42 c16 22 30 45 30 49 0 5 14 39 31 76 89 192 205 434 285 596 24 49 44 92
44 97 0 5 18 46 39 92 21 46 50 110 64 143 29 69 47 82 47 33 0 -18 0 -272 0
-565 0 -292 3 -538 6 -547 5 -14 31 -16 184 -16 137 0 180 3 189 14 8 10 10
278 9 997 l-3 984 -169 3 c-162 2 -170 2 -193 -19 -12 -13 -23 -28 -23 -35 0
-7 -6 -25 -14 -41 -8 -15 -28 -57 -45 -93 -16 -36 -51 -110 -76 -165 -26 -55
-54 -116 -63 -135 -8 -19 -19 -42 -24 -50 -4 -8 -11 -22 -14 -30 -4 -8 -33
-71 -66 -140 -76 -157 -117 -245 -136 -290 -8 -19 -21 -48 -28 -63 -8 -16 -14
-35 -14 -44 0 -8 -13 -34 -28 -57 -15 -22 -31 -50 -35 -60 -22 -58 -27 37 -29
609 l-3 610 -186 3 c-102 1 -188 -1 -192 -5z"/>
<path d="M14227 8994 c-11 -11 -8 -1954 3 -1975 10 -18 29 -19 545 -19 416 0
536 3 542 13 13 19 14 339 1 354 -8 11 -82 13 -346 13 -184 -1 -339 3 -344 8
-5 5 -7 103 -6 218 l3 209 258 5 c241 5 260 6 273 24 11 15 14 57 14 177 0
140 -2 158 -17 164 -10 3 -126 5 -258 4 -132 -1 -248 2 -257 6 -16 6 -18 26
-18 215 0 161 3 210 13 219 9 7 119 12 338 13 l324 3 0 175 0 175 -531 3
c-292 1 -533 -1 -537 -4z"/>
<path d="M18650 8088 c-43 -35 -113 -92 -144 -119 -83 -70 -377 -304 -518
-413 -57 -44 -105 -82 -108 -85 -3 -3 -43 -35 -90 -71 -47 -35 -87 -67 -90
-70 -3 -3 -21 -17 -40 -30 -42 -29 -276 -216 -306 -245 -12 -11 -40 -36 -64
-55 -84 -68 -365 -303 -370 -310 -6 -7 -200 -166 -322 -263 -26 -20 -40 -46
-18 -32 6 3 10 2 10 -4 0 -10 22 -10 515 4 302 8 643 -10 990 -54 74 -9 156
-22 215 -34 14 -3 50 -10 80 -16 352 -71 377 -76 435 -92 47 -12 101 -25 170
-38 62 -11 327 -81 339 -89 5 -3 26 -9 45 -13 20 -4 56 -13 81 -19 25 -6 52
-13 60 -15 8 -2 71 -21 140 -43 108 -34 241 -73 345 -102 17 -4 71 -20 120
-33 167 -48 392 -98 409 -91 14 5 13 8 -7 23 -12 10 -44 28 -71 40 -27 13 -82
45 -122 72 -40 26 -93 60 -118 74 -90 50 -758 544 -995 735 -31 25 -72 55 -91
67 -19 12 -55 45 -80 74 -25 29 -65 74 -88 99 -86 89 -106 123 -79 133 20 7
161 -20 196 -37 16 -9 38 -16 48 -16 19 -1 98 -26 243 -79 47 -18 118 -43 158
-57 40 -13 88 -33 107 -44 35 -20 56 -12 32 12 -8 7 -19 23 -25 35 -7 12 -29
42 -50 66 -20 24 -57 67 -82 97 -25 29 -50 58 -55 64 -6 6 -31 38 -57 71 -25
33 -54 70 -64 82 -11 12 -29 35 -41 50 -12 15 -32 40 -45 55 -13 14 -30 36
-38 48 -15 22 -31 42 -75 95 -26 31 -70 87 -115 146 -14 18 -44 55 -67 83 -24
27 -55 68 -70 90 -16 23 -32 46 -38 52 -5 6 -17 22 -25 34 -8 12 -25 34 -38
48 -13 15 -35 48 -49 73 -36 63 -52 72 -83 47z"/>
<path d="M20010 7211 c0 -5 7 -12 16 -15 14 -5 15 -4 4 9 -14 17 -20 19 -20 6z"/>
<path d="M10260 6319 c-58 -3 -118 -10 -135 -16 -178 -63 -280 -145 -344 -278
-52 -109 -51 -102 -80 -375 -22 -198 -12 -612 19 -800 18 -112 66 -239 111
-291 11 -13 29 -34 40 -47 29 -34 127 -93 204 -122 23 -9 87 -25 163 -40 153
-30 378 11 494 91 92 62 218 231 218 291 0 9 6 33 14 55 17 48 28 251 14 276
-8 16 -24 17 -180 13 -94 -2 -175 -9 -180 -14 -5 -5 -14 -58 -19 -118 -10
-111 -18 -133 -68 -187 -36 -40 -83 -57 -155 -57 -142 1 -215 61 -251 207 -15
61 -16 116 -12 439 6 439 12 477 91 557 41 41 85 57 159 57 78 0 122 -17 162
-62 55 -61 65 -93 65 -200 l0 -98 193 2 192 3 3 65 c2 35 -4 96 -12 135 -8 38
-17 87 -21 109 -6 35 -13 55 -37 96 -4 8 -11 22 -15 30 -14 33 -95 130 -130
157 -135 106 -258 136 -503 122z"/>
<path d="M8398 6280 l-168 -5 -1 -939 c0 -663 3 -942 11 -950 16 -16 361 -11
372 6 4 7 8 140 8 295 0 214 3 284 13 290 6 4 80 8 162 9 226 2 317 21 437 91
65 38 158 126 158 149 0 8 4 14 9 14 5 0 13 10 17 23 3 12 11 28 17 36 56 69
84 353 52 526 -18 96 -30 133 -71 205 -60 106 -161 182 -304 230 -58 19 -89
22 -305 24 -132 1 -315 -1 -407 -4z m574 -365 c46 -31 88 -75 88 -95 0 -8 7
-24 15 -34 22 -30 20 -223 -3 -298 -21 -66 -40 -90 -101 -126 -41 -24 -55 -26
-185 -29 -78 -2 -147 0 -154 5 -11 7 -14 67 -13 298 0 158 4 291 8 295 17 15
53 18 178 13 116 -4 133 -7 167 -29z"/>
<path d="M5129 6243 c0 -21 0 -443 1 -938 1 -626 4 -903 12 -912 16 -19 734
-19 798 1 131 40 218 93 298 180 78 86 113 166 133 309 19 135 -7 305 -65 427
-28 59 -149 181 -206 207 -123 57 -160 63 -376 63 l-202 0 -7 38 c-3 20 -4 75
-1 122 3 47 6 106 6 133 l0 47 329 0 c291 0 331 2 346 16 14 14 16 39 13 178
l-3 161 -537 3 -538 2 -1 -37z m716 -1023 c88 -38 118 -78 134 -181 15 -89 -1
-183 -37 -229 -16 -19 -52 -47 -82 -62 -52 -26 -63 -27 -192 -28 -86 0 -139 4
-143 11 -9 13 -14 385 -7 456 6 63 5 63 162 58 90 -3 127 -9 165 -25z"/>
<path d="M6992 6233 c-11 -50 -25 -105 -48 -188 -15 -56 -34 -129 -59 -225 -9
-36 -21 -80 -27 -99 -6 -19 -21 -76 -33 -125 -21 -83 -39 -149 -82 -306 -8
-30 -19 -71 -24 -90 -22 -93 -40 -160 -54 -210 -9 -30 -22 -84 -30 -120 -9
-36 -22 -90 -31 -120 -14 -50 -63 -234 -84 -320 -5 -19 -6 -38 -1 -43 4 -4 97
-6 206 -5 l198 3 17 65 c32 119 50 198 50 225 0 45 16 62 67 70 54 8 407 7
429 -2 19 -7 44 -55 44 -84 0 -24 24 -137 47 -221 l16 -58 194 0 c147 0 193 3
194 13 3 43 -4 108 -16 147 -7 25 -21 81 -30 125 -9 44 -23 98 -30 120 -6 22
-20 76 -30 120 -9 44 -24 100 -31 124 -8 25 -14 52 -14 62 0 9 -6 39 -14 65
-15 52 -33 126 -46 184 -4 19 -18 71 -30 115 -12 44 -25 98 -31 120 -5 22 -13
56 -18 75 -9 33 -18 70 -54 215 -9 33 -21 80 -28 105 -6 25 -18 72 -26 105
-27 116 -31 130 -47 168 l-16 37 -259 0 -258 0 -11 -47z m298 -470 c7 -32 21
-89 32 -128 11 -38 26 -108 35 -155 26 -151 30 -174 48 -265 9 -49 21 -100 26
-113 5 -13 7 -28 4 -33 -4 -5 -85 -9 -182 -9 l-175 0 5 53 c3 28 12 79 20 112
8 33 20 83 27 110 7 28 19 70 26 94 8 25 14 56 14 70 1 14 7 37 15 51 8 14 15
39 15 55 0 17 7 48 15 70 8 22 14 55 15 74 0 32 23 71 41 71 4 0 13 -26 19
-57z"/>
<path d="M11249 5958 c-2 -962 3 -1553 13 -1565 8 -10 93 -13 379 -13 415 0
429 2 567 71 84 42 192 135 212 181 6 13 19 38 31 57 48 80 54 115 54 326 0
144 -4 210 -14 235 -27 72 -56 130 -63 130 -5 0 -8 6 -8 14 0 24 -123 130
-191 164 -108 53 -159 62 -367 62 -103 0 -194 5 -202 10 -13 8 -16 59 -20 327
l-5 318 -192 3 -193 2 -1 -322z m731 -706 c39 -19 64 -40 85 -72 29 -44 30
-47 30 -175 0 -118 -2 -134 -24 -173 -23 -41 -62 -73 -124 -100 -38 -16 -279
-16 -295 0 -9 9 -12 84 -12 275 l0 264 23 9 c12 6 73 7 142 4 102 -5 128 -10
175 -32z"/>
<path d="M12670 5347 c0 -731 3 -937 13 -950 10 -14 37 -17 185 -18 95 -1 176
2 180 6 11 11 14 636 7 1293 l-7 602 -189 0 -189 0 0 -933z"/>
</g>
</svg>
